<?xml version="1.0" encoding="UTF-8"?>
<svg id="Layer_2" data-name="Layer 2" xmlns="http://www.w3.org/2000/svg" viewBox="0 0 574.36 125.58">
  <defs>
    <style>
      .cls-1 {
        fill: #fbcc70;
      }

      .cls-1, .cls-2, .cls-3 {
        stroke: #000;
        stroke-miterlimit: 10;
      }

      .cls-2 {
        fill: #fff;
      }

      .cls-3 {
        fill: #9269f5;
      }
    </style>
  </defs>
  <path class="cls-3" d="M174.71,6.71s-25.88,5.3-24.59,4.98-16.39,5.3-16.39,5.3l-16.39,5.14-17.04,6.43-16.39,7.39-12.86,5.46-21.54,10.61-2.57,3.21s.64,3.05-1.29,5.95-10.46,7.37-11.06,7.66c-.49.24-2.79.77-4.26.72-1.59-.06-5.57.03-5.57.03h-3.05l-17.52,12.48v2.96h193.82L174.71,6.71Z"/>
  <path class="cls-1" d="M49.52,52.04l-2.77,1.75-24.42,15.42,1.15.4h4.02s5.02-.06,5.31-.27c0,0,4.4-1.38,5.83-2.72,0,0,4.91-2.98,4.94-3.33s3.28-2.79,2.98-3.86l.4-4.18s1.9-2.97,2.57-3.21Z"/>
  <path class="cls-1" d="M159.21,14.67l-30.05,9.4-35.68,13.74s-.8-.08-1.53,1.69c0,0,.56,3.21,1.04,3.46,0,0,.88,1.04,1.93.96h72s3.38-1.29,4.1-2.57c0,0,1.61-2.89,1.29-3.86,0,0-3.45-13.86-3.7-14.54l-1.85-5.14s-3.13-3.62-3.46-3.13h-4.1Z"/>
  <polygon class="cls-3" points="174.71 6.71 208.46 1.68 225.39 .5 265.89 .5 267.71 .5 272.27 3.98 281.8 10.25 296.8 22.36 309.23 35.05 313.84 39.61 316.84 43.3 325.09 52.95 331.04 61.2 335.86 67.79 340.41 75.29 345.98 83.43 198.02 85.05 174.71 6.71"/>
  <path class="cls-1" d="M195.93,10.25h84.43s4.9,2.72,6.12,3.97l13.27,11.62,8.95,9,7.98,8.89h-117.59s-3.32-2.62-4.18-7.93l-3.38-13.45-.8-4.02.32-4.02s1.18-2.63,4.88-4.07Z"/>
  <path class="cls-3" d="M267.71.5l12.16,1.13,12.64,1.55s5.14.27,6.91,1.45l11.89,7.88,18.21,11.68,13.93,8.68,14.41,9.43,1.79,1.24,21.19,2.19,12.05.96,52.02,4.93,15.8,1.39,20.3,1.82,16.88,1.82,16.18,1.93,17.57,2.52s36.8,5.14,37.5,5.89c0,0,.38,0,1.45,1.29,0,0,1.07,2.68.64,3.21l-3.11,12h-222.16l-5.57-8.2-4.55-7.5-4.82-6.59-5.95-8.25-8.25-9.64-17.25-17.79-13.27-11.62-6.12-3.97-7.93-5.95s-4.98-3.52-4.55-3.48Z"/>
  <path class="cls-1" d="M543.92,62.92s-.44.8.6,4.78c0,0,3.54,5.02,4.34,5.83,0,0,4.62,4.38,5.75,4.58l8.96,2.33h5.37l2.32-8.96-.82-3.25s-1.1-1.41-1.27-1.25l-25.25-4.06Z"/>
  <path class="cls-1" d="M299.43,4.63s-1.29,2.3-1.5,2.95v2.36l4.29,4.39,8.62,7.77,7.55,6.48,6.8,6.21,6.05,5.62s3.42,2.93,3.7,3h24.56l.16.11-1.79-1.24-14.41-9.43-13.93-8.68-18.21-11.68-11.79-7.8s-.02-.05-.1-.07Z"/>
  <path class="cls-3" d="M210.34,67.63h16.98s3.05.11,3.38,6.32c0,0,1.18,4.34-2.68,5.09s-17.68,0-17.68,0c0,0-2.62-3.11-2.36-6.48s2.36-4.93,2.36-4.93Z"/>
  <path class="cls-3" d="M4.2,85.05v2.9s2.89,4.58,4.1,5.62c0,0,11.97,11.33,14.46,12.13,0,0,10.85,2.33,12.05,2.49,0,0,3.21.48,2.89.88,0,0-.56,2.41-1.45,1.85h-12.29s4.02,7.07,9,10.29l6.99,3.86h498.7s14.3-5.3,14.71-5.87c0,0,5.95-4.58,5.62-6.19l4.74-11.57,4.42-17.97L4.2,85.05Z"/>
  <path class="cls-2" d="M37.71,109.09s.62,2.25-1.45,1.85l-28.26.05s-7.34-3.56-7.5-7.31c0,0,.21-7.39,6.54-7.93h3.59l12.14,9.96,14.95,3.38Z"/>
  <line class="cls-3" x1="345.98" y1="83.48" x2="345.98" y2="125.08"/>
  <line class="cls-3" x1="198.02" y1="85.05" x2="209.75" y2="124.84"/>
  <path class="cls-2" d="M544.04,101.46h27.88s4.06,4.5.44,8.84h-28.33s-5.83-5.46,0-8.84Z"/>
</svg>