<?xml version="1.0" encoding="UTF-8"?>
<svg id="Layer_2" data-name="Layer 2" xmlns="http://www.w3.org/2000/svg" viewBox="0 0 370.89 112.64">
  <defs>
    <style>
      .cls-1 {
        fill: #806a85;
      }

      .cls-1, .cls-2, .cls-3, .cls-4, .cls-5, .cls-6, .cls-7, .cls-8, .cls-9 {
        stroke-miterlimit: 10;
      }

      .cls-1, .cls-2, .cls-3, .cls-4, .cls-6, .cls-7, .cls-8, .cls-9 {
        stroke: #000;
      }

      .cls-2 {
        fill: none;
      }

      .cls-3 {
        fill: #cab8ce;
      }

      .cls-4 {
        fill: #4b334e;
      }

      .cls-5 {
        fill: #4a314f;
        stroke: #020202;
      }

      .cls-6 {
        fill: #826987;
      }

      .cls-7 {
        fill: #c8b9cc;
      }

      .cls-8 {
        fill: #ddf4f9;
      }

      .cls-9 {
        fill: #f7e9fb;
      }
    </style>
  </defs>
  <path class="cls-7" d="M105.3.5h80.79s61.29,39.64,67.5,36.64c0,0,36.43-.43,106.07,16.29,0,0,3.86.86,10.71,9.86,0,0,.43-.43-2.79,4.29-3.21,4.71-1.71,24-1.71,24,0,0-4.93,15.86-22.29,20.57,0,0-34.5-1.07-70.93-12h-144.21s-34.71,9.86-45.43,9.86h-32.14s-33-5.79-38.79-15.43C6.3,84.93.52,51.82.52,51.82l4.5-11.68,6.64-.86,6.43-8.79L105.3.5Z"/>
  <path class="cls-6" d="M17.4,54.29h40.88s30.71-2.36,63.75,20.36c0,0,6.57,14.14-10.17,19.71H22.48s-16.1-18.21-5.08-40.07Z"/>
  <polygon class="cls-8" points="69.07 24.5 69.07 31.14 56.66 32.43 69.07 24.5"/>
  <path class="cls-8" d="M106.59,9.5v21.64h-33.21v-8.79s13.93-12.43,33.21-12.86Z"/>
  <path class="cls-8" d="M124.59,7.57h65.79s28.07,17.79,54.64,30.21c0,0,1.29,7.71-34.93,14.04,0,0-28.07-.32-39.21-6.96-11.14-6.64-57-13.93-57.86-13.71s.64-16.93,11.57-23.57Z"/>
  <path class="cls-2" d="M11.66,39.29l1.03.19,43.97-7.04,16.71-1.29h33.21s41.14,3.43,64.29,13.71c23.14,10.29,54.23,10.07,74.15-6v-1.07"/>
  <path class="cls-2" d="M113.02,31.14l16.93,26.62s.21,9.16-8.46,44.29"/>
  <path class="cls-5" d="M29.44,54.22s-11.73,14.43,0,40.14h-6.86s-15.86-17.04-5.14-40.07l12-.07Z"/>
  <path class="cls-6" d="M256.21,57.93l87.43,15.75s10.93,13.5,0,21.86h-103.66s-5.62-18.16-.96-25.71,5.3-9.64,17.2-11.89Z"/>
  <polyline class="cls-2" points="249.06 60.02 251.31 49 245.02 37.79"/>
  <polygon class="cls-1" points="99.19 2.48 23.02 13.73 23.02 28.46 99.19 2.48"/>
  <path class="cls-4" d="M17.87,15.32s-1.18,9.23.21,14.19c0,0,3.64,1.06,4.93-1.92v-13.92s-2.73-3.09-5.14,1.64Z"/>
  <circle class="cls-4" cx="97.21" cy="79.42" r="11.2"/>
  <circle class="cls-4" cx="256.21" cy="79.97" r="11.2"/>
  <polygon class="cls-9" points="102.09 76.73 253.8 77.86 253.8 83.21 102.09 82.36 102.09 76.73"/>
  <circle class="cls-3" cx="97.21" cy="79.97" r="6.01"/>
  <circle class="cls-3" cx="256.21" cy="80.53" r="6.01"/>
</svg>