<?xml version="1.0" encoding="UTF-8"?>
<svg id="Layer_2" data-name="Layer 2" xmlns="http://www.w3.org/2000/svg" viewBox="0 0 346 152.45">
  <defs>
    <style>
      .cls-1 {
        fill: #5331ca;
      }

      .cls-1, .cls-2, .cls-3, .cls-4, .cls-5, .cls-6, .cls-7, .cls-8 {
        stroke-miterlimit: 10;
      }

      .cls-1, .cls-2, .cls-3, .cls-5, .cls-6, .cls-7, .cls-8 {
        stroke: #000;
      }

      .cls-2 {
        fill: #0d0da3;
      }

      .cls-4 {
        fill: #734cd7;
        stroke: #070707;
      }

      .cls-5 {
        fill: #ffa244;
      }

      .cls-6 {
        fill: #27074d;
      }

      .cls-7 {
        fill: #1597b8;
      }

      .cls-8 {
        fill: #421b74;
      }
    </style>
  </defs>
  <path class="cls-6" d="M334.37,121.05s4.87-1.88,7.93,9.03l-.63,14.45s-3.09,5.98-8.64,7.18-62.51-2.73-62.51-2.73c0,0-4.81.11-8.94-8.43l.68-15.57s5.15-7.34,8.18-6.88l63.93,2.95Z"/>
  <path class="cls-1" d="M307.36,56.94s-9.86-19.29-42.86-46.29c0,0-8.45-5.63-21.38-8.86C234.65-.32,95.21.8,95.21.8c0,0-19.3,1.43-40.31,14.11-.51.31-1.02.62-1.53.94-12.35,7.75-25.13,19.44-34.82,37.05-7.25,13.18-12.77,29.68-15.06,50.32l-3,9.86v10.29h345v-11.57h-2.57s7.29-46.29-35.57-54.86Z"/>
  <line class="cls-8" x1="343.36" y1="111.74" x2="1.22" y2="111.74"/>
  <path class="cls-7" d="M111.55,57.15h195.86s-28.29-39.86-42.86-46.29H73.84l37.71,46.29Z"/>
  <g>
    <rect class="cls-2" x="140.43" y="119.02" width="69.02" height="21.58" transform="translate(344.05 267.13) rotate(-177.5)"/>
    <ellipse class="cls-2" cx="175.5" cy="117.02" rx="21.58" ry="34.51" transform="translate(50.93 287.25) rotate(-87.5)"/>
  </g>
  <path class="cls-6" d="M206.42,121.05s4.87-1.88,7.93,9.03l-.63,14.45s-3.09,5.98-8.64,7.18-62.51-2.73-62.51-2.73c0,0-4.81.11-8.94-8.43l.68-15.57s5.15-7.34,8.18-6.88l63.93,2.95Z"/>
  <path class="cls-8" d="M66.21,52.29s8.79.86,7.5-13.5l-19.12-23.3s-27.47,18.65-34.82,37.05l46.44-.25Z"/>
  <path class="cls-5" d="M307.41,57.15s10.51,53.95,8.74,54.59l26.82.05s6.7-44.79-35.56-54.64Z"/>
  <path class="cls-5" d="M217.81,57.58s10.51,53.52,8.74,54.16l26.82.05s6.7-44.43-35.56-54.21Z"/>
  <g>
    <ellipse class="cls-3" cx="274.98" cy="96.98" rx="1.57" ry="4.14"/>
    <rect class="cls-3" x="275.57" y="92.84" width="19.82" height="8.28" transform="translate(570.96 193.95) rotate(180)"/>
    <ellipse class="cls-3" cx="295.98" cy="96.98" rx="1.57" ry="4.14"/>
  </g>
  <g>
    <rect class="cls-2" x="9.92" y="119.07" width="69.02" height="21.58" transform="translate(83.16 261.54) rotate(-177.5)"/>
    <ellipse class="cls-2" cx="44.99" cy="117.08" rx="21.58" ry="34.51" transform="translate(-73.94 156.92) rotate(-87.5)"/>
  </g>
  <path class="cls-6" d="M75.91,121.05s4.87-1.88,7.93,9.03l-.63,14.45s-3.09,5.98-8.64,7.18-62.51-2.73-62.51-2.73c0,0-4.81.11-8.94-8.43l.68-15.57s5.15-7.34,8.18-6.88l63.93,2.95Z"/>
  <path class="cls-4" d="M148.41,102.37L70.67,7.11l-16.09,8.37,19.12,23.3s1.8,13.45-7.5,13.5-11.62.25-11.62.25v44.18s18.37,3.4,23.44,15.03h63.69s4.6-8.49,6.69-9.38Z"/>
</svg>